HIERARCHY
ROOT Hips
{
	OFFSET -0.001795 -0.223333 0.028219
	CHANNELS 6 Xposition Yposition Zposition Zrotation Yrotation Xrotation 
	JOINT LeftUpLeg
	{
		OFFSET 0.069520 -0.091406 -0.006815
		CHANNELS 3 Zrotation Yrotation Xrotation
		JOINT LeftLeg
		{
			OFFSET 0.034277 -0.375199 -0.004496
			CHANNELS 3 Zrotation Yrotation Xrotation
			JOINT LeftFoot
			{
				OFFSET -0.013596 -0.397961 -0.043693
				CHANNELS 3 Zrotation Yrotation Xrotation
				JOINT LeftToe
				{
					OFFSET 0.026358 -0.055791 0.119288
					CHANNELS 3 Zrotation Yrotation Xrotation
					End Site
					{
						OFFSET 0.000000 0.000000 0.000000
					}
				}
			}
		}
	}
	JOINT RightUpLeg
	{
		OFFSET -0.067670 -0.090522 -0.004320
		CHANNELS 3 Zrotation Yrotation Xrotation
		JOINT RightLeg
		{
			OFFSET -0.038290 -0.382569 -0.008850
			CHANNELS 3 Zrotation Yrotation Xrotation
			JOINT RightFoot
			{
				OFFSET 0.015774 -0.398415 -0.042312
				CHANNELS 3 Zrotation Yrotation Xrotation
				JOINT RightToe
				{
					OFFSET -0.025372 -0.048144 0.123348
					CHANNELS 3 Zrotation Yrotation Xrotation
					End Site
					{
						OFFSET 0.000000 0.000000 0.000000
					}
				}
			}
		}
	}
	JOINT Spine
	{
		OFFSET -0.002533 0.108963 -0.026696
		CHANNELS 3 Zrotation Yrotation Xrotation
		JOINT Spine1
		{
			OFFSET 0.005487 0.135180 0.001092
			CHANNELS 3 Zrotation Yrotation Xrotation
			JOINT Spine2
			{
				OFFSET 0.001457 0.052922 0.025425
				CHANNELS 3 Zrotation Yrotation Xrotation
				JOINT Neck
				{
					OFFSET -0.002778 0.213870 -0.042857
					CHANNELS 3 Zrotation Yrotation Xrotation
					JOINT Head
					{
						OFFSET 0.005152 0.064970 0.051349
						CHANNELS 3 Zrotation Yrotation Xrotation
						End Site
						{
							OFFSET 0.000000 0.000000 0.000000
						}
					}
				}
				JOINT LeftShoulder
				{
					OFFSET 0.078845 0.121749 -0.034090
					CHANNELS 3 Zrotation Yrotation Xrotation
					JOINT LeftArm
					{
						OFFSET 0.090977 0.030469 -0.008868
						CHANNELS 3 Zrotation Yrotation Xrotation
						JOINT LeftForeArm
						{
							OFFSET 0.259612 -0.012772 -0.027456
							CHANNELS 3 Zrotation Yrotation Xrotation
							JOINT LeftHand
							{
								OFFSET 0.249234 0.008986 -0.001171
								CHANNELS 3 Zrotation Yrotation Xrotation
								End Site
								{
									OFFSET 0.000000 0.000000 0.000000
								}
							}
						}
					}
				}
				JOINT RightShoulder
				{
					OFFSET -0.081759 0.118833 -0.038615
					CHANNELS 3 Zrotation Yrotation Xrotation
					JOINT RightArm
					{
						OFFSET -0.096012 0.032551 -0.009143
						CHANNELS 3 Zrotation Yrotation Xrotation
						JOINT RightForeArm
						{
							OFFSET -0.253742 -0.013329 -0.021401
							CHANNELS 3 Zrotation Yrotation Xrotation
							JOINT RightHand
							{
								OFFSET -0.255298 0.007772 -0.005559
								CHANNELS 3 Zrotation Yrotation Xrotation
								End Site
								{
									OFFSET 0.000000 0.000000 0.000000
								}
							}
						}
					}
				}
			}
		}
	}
}
MOTION
Frames: 7
Frame Time: 0.050000
0.000000 0.951471 0.000000 -0.456580 3.452457 3.204940 -0.516271 0.296834 3.075378 -3.039226 0.346031 -7.021874 2.327491 7.683228 8.146507 0.000000 0.000000 0.000000 1.995391 -0.143815 0.782926 1.123356 -0.102724 0.835933 -2.539689 -8.034954 5.761316 0.000000 0.000000 0.000000 -0.870422 -0.136601 4.446645 4.074145 -0.220609 -25.730268 -2.085411 -2.721018 31.256509 -0.605485 1.979671 -30.309955 0.000000 0.000000 0.000000 -26.035682 2.516470 -2.851134 -54.080381 -5.861335 -6.704798 -13.505082 -27.330915 4.955472 0.000000 0.000000 0.000000 16.042852 1.134020 -0.224766 57.307488 4.485263 -6.365761 11.968465 34.822512 5.485656 0.000000 0.000000 0.000000 
-0.000145 0.950362 0.000976 -0.647161 3.572991 3.815443 -0.349175 0.252773 2.677966 -2.874423 0.340786 -7.736162 2.861302 8.300352 7.072105 0.000000 0.000000 0.000000 1.797222 -0.099953 0.453757 1.650821 -0.180264 0.233115 -2.504857 -7.676527 4.637922 0.000000 0.000000 0.000000 -0.384763 -0.123241 3.420043 3.693495 -0.142782 -25.473690 -2.474172 -3.128083 31.552187 -1.129593 2.233783 -31.119084 0.000000 0.000000 0.000000 -25.939590 3.783917 -3.528017 -54.369411 -6.012361 -6.708180 -13.137601 -26.464331 4.732673 0.000000 0.000000 0.000000 15.782159 0.227192 -0.744517 58.691575 3.181738 -7.140178 12.222976 36.014120 5.814616 0.000000 0.000000 0.000000 
-0.000192 0.949827 0.002334 -0.126355 3.663785 4.339721 -0.312775 0.195117 2.041492 -3.210928 0.349143 -7.205022 2.457553 7.665576 7.294669 0.000000 0.000000 0.000000 1.277363 -0.058713 0.225796 1.867055 -0.211485 -0.060865 -2.859208 -8.396839 4.320186 0.000000 0.000000 0.000000 -0.237935 -0.105094 2.811502 2.743314 0.061610 -25.095576 -2.498328 -3.644464 31.640398 -1.735060 2.479165 -31.369460 0.000000 0.000000 0.000000 -25.636976 3.855808 -3.380475 -54.202333 -6.238260 -6.619055 -12.115955 -25.307081 4.281038 0.000000 0.000000 0.000000 16.283984 0.242519 -0.888879 58.988312 3.226260 -7.123961 11.145915 34.546001 5.145705 0.000000 0.000000 0.000000 
-0.000339 0.950025 0.004216 -0.096657 3.613092 4.228899 -0.571457 0.236611 2.365313 -2.713506 0.333493 -7.466992 2.682102 8.020471 7.178337 0.000000 0.000000 0.000000 0.988023 -0.092842 0.609264 2.270432 -0.262495 -0.360017 -2.680729 -8.045746 4.528189 0.000000 0.000000 0.000000 -0.231954 -0.112221 2.980015 3.082342 0.020861 -26.006388 -2.955152 -3.520495 32.886381 -1.944861 2.621383 -32.181370 0.000000 0.000000 0.000000 -26.385022 4.574828 -3.908518 -54.084794 -6.032989 -6.817745 -12.456412 -25.235037 4.370681 0.000000 0.000000 0.000000 16.526391 0.010227 -0.974217 58.805807 3.179603 -7.276153 11.755796 34.209359 5.314817 0.000000 0.000000 0.000000 
-0.000596 0.950496 0.006827 -0.055193 3.508458 4.143718 -0.408694 0.236535 2.451723 -2.849653 0.340587 -7.777434 2.817333 8.377973 7.623532 0.000000 0.000000 0.000000 1.039002 -0.154935 1.143993 2.003081 -0.248701 -1.126992 -2.653639 -7.967990 4.441111 0.000000 0.000000 0.000000 -0.169411 -0.123559 3.186919 3.135891 -0.029362 -25.171990 -3.037013 -3.276234 32.001377 -2.093830 2.717843 -31.542399 0.000000 0.000000 0.000000 -25.623945 4.767706 -4.043801 -54.031821 -5.184811 -7.052942 -13.160746 -25.483506 4.554078 0.000000 0.000000 0.000000 16.396576 -0.568589 -1.256770 59.229591 2.471552 -7.551664 11.863181 33.285686 5.173650 0.000000 0.000000 0.000000 
-0.000745 0.950740 0.010578 -0.038122 3.604547 4.267538 -0.369438 0.240286 2.514975 -2.949079 0.343688 -8.142673 2.630375 8.111174 7.801653 0.000000 0.000000 0.000000 1.134622 -0.202002 1.523036 1.822970 -0.242547 -1.647647 -2.553546 -7.841546 4.859447 0.000000 0.000000 0.000000 -0.271322 -0.112793 3.042036 2.959818 0.028061 -25.539951 -2.887019 -3.296383 32.395117 -2.201311 2.781488 -31.588823 0.000000 0.000000 0.000000 -25.263809 5.089319 -4.214025 -53.970892 -4.873761 -7.210203 -14.017758 -25.719567 4.804232 0.000000 0.000000 0.000000 16.638879 -0.783281 -1.374007 58.779485 1.324521 -8.089612 12.701976 33.614442 5.477552 0.000000 0.000000 0.000000 
-0.000649 0.950677 0.015643 -0.014228 3.883096 4.304430 -0.386170 0.233249 2.431344 -2.940622 0.340306 -8.167302 2.684163 8.316075 8.125457 0.000000 0.000000 0.000000 1.374157 -0.235830 1.730536 1.347337 -0.194068 -1.560753 -2.611426 -7.849988 4.404171 0.000000 0.000000 0.000000 -0.407018 -0.115272 3.271551 3.080630 0.000342 -25.430279 -3.065954 -3.335002 32.328700 -1.807390 2.595096 -31.567353 0.000000 0.000000 0.000000 -25.092299 5.197021 -4.307864 -53.416426 -4.330541 -7.377248 -15.128296 -26.974392 5.331699 0.000000 0.000000 0.000000 16.782139 -1.371126 -1.667118 58.568413 0.425372 -8.486337 14.142326 34.175634 6.037459 0.000000 0.000000 0.000000 
